<?xml version="1.0" encoding="utf-8"?>
<!-- Generator: Adobe Illustrator 16.0.0, SVG Export Plug-In . SVG Version: 6.00 Build 0)  -->
<!DOCTYPE svg PUBLIC "-//W3C//DTD SVG 1.1//EN" "http://www.w3.org/Graphics/SVG/1.1/DTD/svg11.dtd">
<svg version="1.1" id="Layer_1" xmlns="http://www.w3.org/2000/svg" xmlns:xlink="http://www.w3.org/1999/xlink" x="0px" y="0px"
	 width="19.375px" height="18.875px" viewBox="0 0 19.375 18.875" enable-background="new 0 0 19.375 18.875" xml:space="preserve">
<g>
	<defs>
		<rect id="SVGID_1_" x="-20" y="-20.814" width="237.795" height="57.482"/>
	</defs>
	<clipPath id="SVGID_2_">
		<use xlink:href="#SVGID_1_"  overflow="visible"/>
	</clipPath>
	<g clip-path="url(#SVGID_2_)">
		<defs>
			<path id="SVGID_3_" d="M1.675,9.668c0,4.855,3.936,8.791,8.792,8.791c4.855,0,8.791-3.936,8.791-8.791s-3.936-8.794-8.791-8.794
				C5.611,0.874,1.675,4.813,1.675,9.668"/>
		</defs>
		<clipPath id="SVGID_4_">
			<use xlink:href="#SVGID_3_"  overflow="visible"/>
		</clipPath>
		<defs>
			<filter id="Adobe_OpacityMaskFilter" filterUnits="userSpaceOnUse" x="1.675" y="0.874" width="17.583" height="17.585">
				<feColorMatrix  type="matrix" values="1 0 0 0 0  0 1 0 0 0  0 0 1 0 0  0 0 0 1 0"/>
			</filter>
		</defs>
		<mask maskUnits="userSpaceOnUse" x="1.675" y="0.874" width="17.583" height="17.585" id="SVGID_5_">
			<g filter="url(#Adobe_OpacityMaskFilter)">
				
					<radialGradient id="SVGID_6_" cx="-29.748" cy="30.9121" r="1" gradientTransform="matrix(8.7917 0 0 -8.7917 272.0026 281.4375)" gradientUnits="userSpaceOnUse">
					<stop  offset="0" style="stop-color:#FFFFFF"/>
					<stop  offset="0.4089" style="stop-color:#FFFFFF"/>
					<stop  offset="0.5382" style="stop-color:#FCFCFC"/>
					<stop  offset="0.6184" style="stop-color:#F4F4F4"/>
					<stop  offset="0.6853" style="stop-color:#E5E5E5"/>
					<stop  offset="0.7448" style="stop-color:#D1D1D1"/>
					<stop  offset="0.7995" style="stop-color:#B6B6B6"/>
					<stop  offset="0.8506" style="stop-color:#959595"/>
					<stop  offset="0.899" style="stop-color:#6E6E6E"/>
					<stop  offset="0.9452" style="stop-color:#414141"/>
					<stop  offset="0.9882" style="stop-color:#0F0F0F"/>
					<stop  offset="1" style="stop-color:#000000"/>
				</radialGradient>
				<rect x="1.675" y="0.874" clip-path="url(#SVGID_4_)" fill="url(#SVGID_6_)" width="17.583" height="17.585"/>
			</g>
		</mask>
		
			<radialGradient id="SVGID_7_" cx="-29.749" cy="30.9121" r="1" gradientTransform="matrix(8.7917 0 0 -8.7917 272.0104 281.4375)" gradientUnits="userSpaceOnUse">
			<stop  offset="0" style="stop-color:#B4B4B4"/>
			<stop  offset="0.4089" style="stop-color:#B4B4B4"/>
			<stop  offset="0.628" style="stop-color:#B7B7B7"/>
			<stop  offset="0.7651" style="stop-color:#BFBFBF"/>
			<stop  offset="0.8795" style="stop-color:#CECECE"/>
			<stop  offset="0.981" style="stop-color:#E2E2E2"/>
			<stop  offset="1" style="stop-color:#E7E7E7"/>
		</radialGradient>
		
			<rect x="1.675" y="0.874" clip-path="url(#SVGID_4_)" mask="url(#SVGID_5_)" fill="url(#SVGID_7_)" width="17.583" height="17.585"/>
	</g>
	<g clip-path="url(#SVGID_2_)">
		<defs>
			<path id="SVGID_8_" d="M1.611,8.709c0,4.326,3.507,7.834,7.833,7.834c4.326,0,7.833-3.508,7.833-7.834S13.77,0.874,9.444,0.874
				C5.118,0.874,1.611,4.383,1.611,8.709"/>
		</defs>
		<clipPath id="SVGID_9_">
			<use xlink:href="#SVGID_8_"  overflow="visible"/>
		</clipPath>
		
			<radialGradient id="SVGID_10_" cx="-29.5957" cy="30.8398" r="1" gradientTransform="matrix(7.8333 0 0 -7.8333 241.2787 250.2891)" gradientUnits="userSpaceOnUse">
			<stop  offset="0" style="stop-color:#FFFFFF"/>
			<stop  offset="0.5614" style="stop-color:#FDFDFD"/>
			<stop  offset="0.799" style="stop-color:#F6F6F6"/>
			<stop  offset="0.9752" style="stop-color:#E9E9E9"/>
			<stop  offset="1" style="stop-color:#E7E7E7"/>
		</radialGradient>
		<rect x="1.611" y="0.874" clip-path="url(#SVGID_9_)" fill="url(#SVGID_10_)" width="15.666" height="15.669"/>
	</g>
	<g clip-path="url(#SVGID_2_)">
		<defs>
			<rect id="SVGID_11_" x="-20" y="-20.813" width="237.795" height="57.481"/>
		</defs>
		<clipPath id="SVGID_12_">
			<use xlink:href="#SVGID_11_"  overflow="visible"/>
		</clipPath>
		<path clip-path="url(#SVGID_12_)" fill-rule="evenodd" clip-rule="evenodd" fill="#302131" d="M9.142,5.41
			c-0.22-0.221-0.576-0.221-0.795,0c-0.22,0.219-0.219,0.576,0,0.797l2.231,2.236l-2.231,2.238c-0.22,0.219-0.22,0.576,0,0.797
			c0.219,0.219,0.575,0.219,0.795,0l3.026-3.035L9.142,5.41z"/>
	</g>
</g>
</svg>
